<?xml version="1.0" encoding="UTF-8" standalone="no"?>
<!DOCTYPE svg PUBLIC "-//W3C//DTD SVG 1.1//EN"
 "http://www.w3.org/Graphics/SVG/1.1/DTD/svg11.dtd">
<!-- Generated by graphviz version 8.0.5 (20230430.1635)
 -->
<!-- Title: classes Pages: 1 -->
<svg width="1047pt" height="585pt"
 viewBox="0.00 0.00 1046.62 584.50" xmlns="http://www.w3.org/2000/svg" xmlns:xlink="http://www.w3.org/1999/xlink">
<g id="graph0" class="graph" transform="scale(1 1) rotate(0) translate(4 580.5)">
<title>classes</title>
<polygon fill="white" stroke="none" points="-4,4 -4,-580.5 1042.62,-580.5 1042.62,4 -4,4"/>
<!-- creatures.action.action.Action -->
<g id="node1" class="node">
<title>creatures.action.action.Action</title>
<polygon fill="aliceblue" stroke="aliceblue" points="153.62,-502.5 153.62,-576 332.38,-576 332.38,-502.5 153.62,-502.5"/>
<text text-anchor="start" x="161.62" y="-558.7" font-family="Times,serif" font-size="14.00">creatures.action.action.Action</text>
<polyline fill="none" stroke="aliceblue" points="153.62,-551.5 332.38,-551.5"/>
<text text-anchor="start" x="210.38" y="-534.2" font-family="Times,serif" font-size="14.00">energy_cost</text>
<polyline fill="none" stroke="aliceblue" points="153.62,-527 332.38,-527"/>
<text text-anchor="start" x="210.75" y="-510.7" font-family="Times,serif" font-style="italic" font-size="14.00">run</text>
<text text-anchor="start" x="229.5" y="-510.7" font-family="Times,serif" font-size="14.00">(): None</text>
</g>
<!-- creatures.action.action.ActionComponent -->
<g id="node2" class="node">
<title>creatures.action.action.ActionComponent</title>
<polygon fill="aliceblue" stroke="aliceblue" points="558.75,-115.75 558.75,-189.25 801.25,-189.25 801.25,-115.75 558.75,-115.75"/>
<text text-anchor="start" x="566.75" y="-171.95" font-family="Times,serif" font-size="14.00">creatures.action.action.ActionComponent</text>
<polyline fill="none" stroke="aliceblue" points="558.75,-164.75 801.25,-164.75"/>
<text text-anchor="start" x="611.38" y="-147.45" font-family="Times,serif" font-size="14.00">action : Optional[Action]</text>
<polyline fill="none" stroke="aliceblue" points="558.75,-140.25 801.25,-140.25"/>
<text text-anchor="start" x="678.12" y="-122.95" font-family="Times,serif" font-size="14.00"> </text>
</g>
<!-- creatures.component.component.Component -->
<g id="node6" class="node">
<title>creatures.component.component.Component</title>
<polygon fill="antiquewhite" stroke="antiquewhite" points="549.38,-374.5 549.38,-448 810.62,-448 810.62,-374.5 549.38,-374.5"/>
<text text-anchor="start" x="557.38" y="-430.7" font-family="Times,serif" font-size="14.00">creatures.component.component.Component</text>
<polyline fill="none" stroke="antiquewhite" points="549.38,-423.5 810.62,-423.5"/>
<text text-anchor="start" x="637.25" y="-406.2" font-family="Times,serif" font-size="14.00">properties : dict</text>
<polyline fill="none" stroke="antiquewhite" points="549.38,-399 810.62,-399"/>
<text text-anchor="start" x="678.12" y="-381.7" font-family="Times,serif" font-size="14.00"> </text>
</g>
<!-- creatures.action.action.ActionComponent&#45;&gt;creatures.component.component.Component -->
<g id="edge1" class="edge">
<title>creatures.action.action.ActionComponent&#45;&gt;creatures.component.component.Component</title>
<path fill="none" stroke="black" d="M680,-189.2C680,-234.8 680,-313.82 680,-363.99"/>
<polygon fill="none" stroke="black" points="676.5,-363.85 680,-373.85 683.5,-363.85 676.5,-363.85"/>
</g>
<!-- creatures.action.action.ActionSystem -->
<g id="node3" class="node">
<title>creatures.action.action.ActionSystem</title>
<polygon fill="aliceblue" stroke="aliceblue" points="819.38,-128 819.38,-177 1038.62,-177 1038.62,-128 819.38,-128"/>
<text text-anchor="start" x="827.38" y="-159.7" font-family="Times,serif" font-size="14.00">creatures.action.action.ActionSystem</text>
<polyline fill="none" stroke="aliceblue" points="819.38,-152.5 1038.62,-152.5"/>
<polyline fill="none" stroke="aliceblue" points="819.38,-152.5 1038.62,-152.5"/>
<text text-anchor="start" x="851.75" y="-135.2" font-family="Times,serif" font-size="14.00">update(entities: List[Entity])</text>
</g>
<!-- creatures.system.System -->
<g id="node9" class="node">
<title>creatures.system.System</title>
<polygon fill="aquamarine" stroke="aquamarine" points="843.38,-386.75 843.38,-435.75 1014.62,-435.75 1014.62,-386.75 843.38,-386.75"/>
<text text-anchor="start" x="861.5" y="-418.45" font-family="Times,serif" font-size="14.00">creatures.system.System</text>
<polyline fill="none" stroke="aquamarine" points="843.38,-411.25 1014.62,-411.25"/>
<polyline fill="none" stroke="aquamarine" points="843.38,-411.25 1014.62,-411.25"/>
<text text-anchor="start" x="851.38" y="-394.95" font-family="Times,serif" font-style="italic" font-size="14.00">update</text>
<text text-anchor="start" x="888.12" y="-394.95" font-family="Times,serif" font-size="14.00">(entities: List[Entity])</text>
</g>
<!-- creatures.action.action.ActionSystem&#45;&gt;creatures.system.System -->
<g id="edge2" class="edge">
<title>creatures.action.action.ActionSystem&#45;&gt;creatures.system.System</title>
<path fill="none" stroke="black" d="M929,-176.74C929,-222.16 929,-322.92 929,-376.01"/>
<polygon fill="none" stroke="black" points="925.5,-375.88 929,-385.88 932.5,-375.88 925.5,-375.88"/>
</g>
<!-- creatures.action.action.Grab -->
<g id="node4" class="node">
<title>creatures.action.action.Grab</title>
<polygon fill="aliceblue" stroke="aliceblue" points="64.5,-366.25 64.5,-456.25 233.5,-456.25 233.5,-366.25 64.5,-366.25"/>
<text text-anchor="start" x="72.5" y="-438.95" font-family="Times,serif" font-size="14.00">creatures.action.action.Grab</text>
<polyline fill="none" stroke="aliceblue" points="64.5,-431.75 233.5,-431.75"/>
<text text-anchor="start" x="133.62" y="-414.45" font-family="Times,serif" font-size="14.00">entity</text>
<text text-anchor="start" x="133.62" y="-397.95" font-family="Times,serif" font-size="14.00">target</text>
<polyline fill="none" stroke="aliceblue" points="64.5,-390.75 233.5,-390.75"/>
<text text-anchor="start" x="117.12" y="-373.45" font-family="Times,serif" font-size="14.00">run(): None</text>
</g>
<!-- creatures.action.action.Grab&#45;&gt;creatures.action.action.Action -->
<g id="edge3" class="edge">
<title>creatures.action.action.Grab&#45;&gt;creatures.action.action.Action</title>
<path fill="none" stroke="black" d="M181.61,-455.97C190.74,-468.2 200.68,-481.52 209.84,-493.8"/>
<polygon fill="none" stroke="black" points="207.57,-495.61 216.35,-501.53 213.18,-491.42 207.57,-495.61"/>
</g>
<!-- creatures.action.action.Move -->
<g id="node5" class="node">
<title>creatures.action.action.Move</title>
<polygon fill="aliceblue" stroke="aliceblue" points="251.88,-358 251.88,-464.5 426.12,-464.5 426.12,-358 251.88,-358"/>
<text text-anchor="start" x="259.88" y="-447.2" font-family="Times,serif" font-size="14.00">creatures.action.action.Move</text>
<polyline fill="none" stroke="aliceblue" points="251.88,-440 426.12,-440"/>
<text text-anchor="start" x="306.38" y="-422.7" font-family="Times,serif" font-size="14.00">direction</text>
<text text-anchor="start" x="306.38" y="-406.2" font-family="Times,serif" font-size="14.00">energy_cost</text>
<text text-anchor="start" x="306.38" y="-389.7" font-family="Times,serif" font-size="14.00">entity</text>
<polyline fill="none" stroke="aliceblue" points="251.88,-382.5 426.12,-382.5"/>
<text text-anchor="start" x="307.12" y="-365.2" font-family="Times,serif" font-size="14.00">run(): None</text>
</g>
<!-- creatures.action.action.Move&#45;&gt;creatures.action.action.Action -->
<g id="edge4" class="edge">
<title>creatures.action.action.Move&#45;&gt;creatures.action.action.Action</title>
<path fill="none" stroke="black" d="M299.4,-464.23C291.89,-474.09 284.09,-484.32 276.78,-493.92"/>
<polygon fill="none" stroke="black" points="273.5,-491.45 270.22,-501.53 279.06,-495.69 273.5,-491.45"/>
</g>
<!-- creatures.entity.Entity -->
<g id="node7" class="node">
<title>creatures.entity.Entity</title>
<polygon fill="aquamarine" stroke="aquamarine" points="0,-0.5 0,-304.5 244,-304.5 244,-0.5 0,-0.5"/>
<text text-anchor="start" x="62.38" y="-287.2" font-family="Times,serif" font-size="14.00">creatures.entity.Entity</text>
<polyline fill="none" stroke="aquamarine" points="0,-280 244,-280"/>
<text text-anchor="start" x="51.88" y="-262.7" font-family="Times,serif" font-size="14.00">id : str</text>
<text text-anchor="start" x="51.88" y="-246.2" font-family="Times,serif" font-size="14.00">is_resource</text>
<text text-anchor="start" x="51.88" y="-229.7" font-family="Times,serif" font-size="14.00">mark_remove : bool</text>
<text text-anchor="start" x="51.88" y="-213.2" font-family="Times,serif" font-size="14.00">metadata</text>
<text text-anchor="start" x="51.88" y="-196.7" font-family="Times,serif" font-size="14.00">movement</text>
<text text-anchor="start" x="51.88" y="-180.2" font-family="Times,serif" font-size="14.00">name</text>
<text text-anchor="start" x="51.88" y="-163.7" font-family="Times,serif" font-size="14.00">properties : Dict[str, Any]</text>
<text text-anchor="start" x="51.88" y="-147.2" font-family="Times,serif" font-size="14.00">size</text>
<text text-anchor="start" x="51.88" y="-130.7" font-family="Times,serif" font-size="14.00">type : str</text>
<polyline fill="none" stroke="aquamarine" points="0,-123.5 244,-123.5"/>
<text text-anchor="start" x="8" y="-106.2" font-family="Times,serif" font-size="14.00">add_component(component: Component)</text>
<text text-anchor="start" x="63.5" y="-89.7" font-family="Times,serif" font-size="14.00">distance(other: Entity</text>
<polyline fill="none" stroke="aquamarine" points="0,-82.5 244,-82.5"/>
<text text-anchor="start" x="28.25" y="-65.2" font-family="Times,serif" font-size="14.00">Vector): float</text>
<text text-anchor="start" x="28.25" y="-48.7" font-family="Times,serif" font-size="14.00">get_component(component_id: str</text>
<polyline fill="none" stroke="aquamarine" points="0,-41.5 244,-41.5"/>
<text text-anchor="start" x="52.62" y="-24.2" font-family="Times,serif" font-size="14.00">type): Component | None</text>
<text text-anchor="start" x="52.62" y="-7.7" font-family="Times,serif" font-size="14.00">to_dict(): Dict[str, Any]</text>
</g>
<!-- creatures.entity.Entity&#45;&gt;creatures.action.action.Grab -->
<g id="edge5" class="edge">
<title>creatures.entity.Entity&#45;&gt;creatures.action.action.Grab</title>
<path fill="none" stroke="black" d="M99.04,-304.13C100.04,-316.2 102.01,-328.12 105.25,-339.5 106.72,-344.66 108.68,-349.81 110.96,-354.84"/>
<polygon fill="none" stroke="black" points="110.95,-354.83 117.23,-358.37 116.37,-365.53 110.09,-361.99 110.95,-354.83"/>
<text text-anchor="middle" x="121.38" y="-326.2" font-family="Times,serif" font-size="14.00" fill="green">entity</text>
</g>
<!-- creatures.entity.Entity&#45;&gt;creatures.action.action.Grab -->
<g id="edge6" class="edge">
<title>creatures.entity.Entity&#45;&gt;creatures.action.action.Grab</title>
<path fill="none" stroke="black" d="M137.86,-304.34C139.7,-321.81 141.48,-338.72 143.05,-353.7"/>
<polygon fill="none" stroke="black" points="143.03,-353.5 147.64,-359.05 144.29,-365.43 139.68,-359.88 143.03,-353.5"/>
<text text-anchor="middle" x="157.38" y="-326.2" font-family="Times,serif" font-size="14.00" fill="green">target</text>
</g>
<!-- creatures.entity.Entity&#45;&gt;creatures.action.action.Move -->
<g id="edge7" class="edge">
<title>creatures.entity.Entity&#45;&gt;creatures.action.action.Move</title>
<path fill="none" stroke="black" d="M243.82,-297.64C258.8,-315.36 273.43,-332.67 286.56,-348.2"/>
<polygon fill="none" stroke="black" points="286.63,-348.28 293.56,-350.28 294.37,-357.45 287.45,-355.45 286.63,-348.28"/>
<text text-anchor="middle" x="290.38" y="-326.2" font-family="Times,serif" font-size="14.00" fill="green">entity</text>
</g>
<!-- creatures.primitives.Vector -->
<g id="node8" class="node">
<title>creatures.primitives.Vector</title>
<polygon fill="aquamarine" stroke="aquamarine" points="261.75,-33.25 261.75,-271.75 540.25,-271.75 540.25,-33.25 261.75,-33.25"/>
<text text-anchor="start" x="327.5" y="-254.45" font-family="Times,serif" font-size="14.00">creatures.primitives.Vector</text>
<polyline fill="none" stroke="aquamarine" points="261.75,-247.25 540.25,-247.25"/>
<text text-anchor="start" x="397.62" y="-229.95" font-family="Times,serif" font-size="14.00">x</text>
<text text-anchor="start" x="397.62" y="-213.45" font-family="Times,serif" font-size="14.00">y</text>
<polyline fill="none" stroke="aquamarine" points="261.75,-206.25 540.25,-206.25"/>
<text text-anchor="start" x="269.75" y="-188.95" font-family="Times,serif" font-size="14.00">add(vec: Vector): Vector</text>
<text text-anchor="start" x="269.75" y="-172.45" font-family="Times,serif" font-size="14.00">as_tuple(): Tuple[float, float]</text>
<text text-anchor="start" x="269.75" y="-155.95" font-family="Times,serif" font-size="14.00">div(value: Any[float, int]): Vector</text>
<text text-anchor="start" x="269.75" y="-139.45" font-family="Times,serif" font-size="14.00">from_points(origin: Vector, dest: Vector): Vector</text>
<text text-anchor="start" x="269.75" y="-122.95" font-family="Times,serif" font-size="14.00">mul(value: Any[float, int]): Vector</text>
<text text-anchor="start" x="269.75" y="-106.45" font-family="Times,serif" font-size="14.00">scalar(mult: float): Vector</text>
<text text-anchor="start" x="269.75" y="-89.95" font-family="Times,serif" font-size="14.00">size(): float</text>
<text text-anchor="start" x="269.75" y="-73.45" font-family="Times,serif" font-size="14.00">sub(vec: Vector): Vector</text>
<text text-anchor="start" x="269.75" y="-56.95" font-family="Times,serif" font-size="14.00">to_dict(): Dict[str, Any]</text>
<text text-anchor="start" x="269.75" y="-40.45" font-family="Times,serif" font-size="14.00">unit(): Vector</text>
</g>
<!-- creatures.primitives.Vector&#45;&gt;creatures.action.action.Move -->
<g id="edge8" class="edge">
<title>creatures.primitives.Vector&#45;&gt;creatures.action.action.Move</title>
<path fill="none" stroke="black" d="M381.08,-271.75C376.43,-294.39 371.05,-317.8 365,-339.5 364.42,-341.58 363.81,-343.69 363.17,-345.81"/>
<polygon fill="none" stroke="black" points="363.19,-345.73 365.18,-352.66 359.54,-357.15 357.56,-350.22 363.19,-345.73"/>
<text text-anchor="middle" x="393" y="-326.2" font-family="Times,serif" font-size="14.00" fill="green">direction</text>
</g>
</g>
</svg>
