<?xml version="1.0" encoding="UTF-8" standalone="no"?>
<!DOCTYPE svg PUBLIC "-//W3C//DTD SVG 1.1//EN"
 "http://www.w3.org/Graphics/SVG/1.1/DTD/svg11.dtd">
<!-- Generated by graphviz version 8.0.5 (20230430.1635)
 -->
<!-- Title: packages Pages: 1 -->
<svg width="284pt" height="44pt"
 viewBox="0.00 0.00 283.88 44.00" xmlns="http://www.w3.org/2000/svg" xmlns:xlink="http://www.w3.org/1999/xlink">
<g id="graph0" class="graph" transform="scale(1 1) rotate(0) translate(4 40)">
<title>packages</title>
<polygon fill="white" stroke="none" points="-4,4 -4,-40 279.88,-40 279.88,4 -4,4"/>
<!-- creatures.action -->
<g id="node1" class="node">
<title>creatures.action</title>
<polygon fill="aliceblue" stroke="aliceblue" points="101.5,-36 0,-36 0,0 101.5,0 101.5,-36"/>
<text text-anchor="middle" x="50.75" y="-12.95" font-family="Times,serif" font-size="14.00">creatures.action</text>
</g>
<!-- creatures.action&#45;&gt;creatures.action -->
<g id="edge1" class="edge">
<title>creatures.action&#45;&gt;creatures.action</title>
<path fill="none" stroke="black" d="M101.72,-11.51C112.08,-12.21 119.5,-14.38 119.5,-18 119.5,-20.32 116.46,-22.04 111.54,-23.17"/>
<polygon fill="black" stroke="black" points="101.72,-24.49 111.03,-18.69 106.67,-23.82 111.63,-23.15 111.63,-23.15 111.63,-23.15 106.67,-23.82 112.23,-27.61 101.72,-24.49 101.72,-24.49"/>
</g>
<!-- creatures.action.action -->
<g id="node2" class="node">
<title>creatures.action.action</title>
<polygon fill="aliceblue" stroke="aliceblue" points="275.88,-36 137.62,-36 137.62,0 275.88,0 275.88,-36"/>
<text text-anchor="middle" x="206.75" y="-12.95" font-family="Times,serif" font-size="14.00">creatures.action.action</text>
</g>
</g>
</svg>
